<?xml version="1.0"?>
<svg xmlns="http://www.w3.org/2000/svg" xmlns:xlink="http://www.w3.org/1999/xlink" xmlns:svgjs="http://svgjs.com/svgjs" version="1.1" width="512" height="512" x="0" y="0" viewBox="0 0 512.139 512.139" style="enable-background:new 0 0 512 512" xml:space="preserve" class=""><g>
<g xmlns="http://www.w3.org/2000/svg">
	<g>
		<g>
			<rect x="336.059" y="0.07" width="32" height="64" fill="#00cdac" data-original="#000000" style="" class=""/>
			<rect x="480.059" y="192.07" width="32" height="32" fill="#00cdac" data-original="#000000" style="" class=""/>
			<rect x="456.061" y="38.156" transform="matrix(0.7071 0.7071 -0.7071 0.7071 189.2458 -312.6796)" width="32" height="67.888" fill="#00cdac" data-original="#000000" style="" class=""/>
			<rect x="182.12" y="56.076" transform="matrix(0.7071 0.7071 -0.7071 0.7071 114.2489 -131.6702)" width="67.888" height="32" fill="#00cdac" data-original="#000000" style="" class=""/>
			<rect x="176.059" y="384.07" width="32" height="128" fill="#00cdac" data-original="#000000" style="" class=""/>
			<rect x="240.059" y="384.07" width="32" height="64" fill="#00cdac" data-original="#000000" style="" class=""/>
			<rect x="240.059" y="480.07" width="32" height="32" fill="#00cdac" data-original="#000000" style="" class=""/>
			<rect x="304.059" y="384.07" width="32" height="128" fill="#00cdac" data-original="#000000" style="" class=""/>
			<path d="M448.059,289.67c0-0.528,0-1.072,0-1.6c-0.015-15.018-3.579-29.82-10.4-43.2c6.813-13.953,10.37-29.272,10.4-44.8     c-0.032-57.438-46.62-103.974-104.058-103.942c-32.837,0.018-63.736,15.543-83.35,41.878     c-74.033-29.051-157.599,7.414-186.65,81.447c-5.27,13.429-8.492,27.574-9.558,41.961     C14.375,278.857-12.073,333.585,5.37,383.653c13.442,38.583,49.831,64.431,90.689,64.417h48v-32h-48     c-35.346,0.036-64.029-28.589-64.064-63.936c-0.031-30.461,21.412-56.723,51.264-62.784l12.8-2.592V272.07     c0.105-61.856,50.333-111.915,112.189-111.81c41.997,0.071,80.425,23.631,99.539,61.026l6.672,13.072l13.6-5.52     c7.614-3.133,15.766-4.753,24-4.768c35.346,0,64,28.654,64,64c0.007,4.343-0.432,8.675-1.312,12.928l-4.08,19.792l20.192-0.56     c0.896,0,1.776-0.128,1.2-0.16c26.51,0,48,21.49,48,48c0,26.51-21.49,48-48,48h-64v32h64c44.183,0.044,80.036-35.737,80.08-79.92     C512.178,330.074,485.374,297.247,448.059,289.67z M414.363,215.126h-0.032c-23.329-20.065-54.911-27.632-84.8-20.32     c-10.44-16.358-24.078-30.437-40.096-41.392c25.389-30.375,70.594-34.416,100.968-9.028     C411.014,161.613,420.262,188.919,414.363,215.126z" fill="#00cdac" data-original="#000000" style="" class=""/>
		</g>
	</g>
</g>
<g xmlns="http://www.w3.org/2000/svg">
</g>
<g xmlns="http://www.w3.org/2000/svg">
</g>
<g xmlns="http://www.w3.org/2000/svg">
</g>
<g xmlns="http://www.w3.org/2000/svg">
</g>
<g xmlns="http://www.w3.org/2000/svg">
</g>
<g xmlns="http://www.w3.org/2000/svg">
</g>
<g xmlns="http://www.w3.org/2000/svg">
</g>
<g xmlns="http://www.w3.org/2000/svg">
</g>
<g xmlns="http://www.w3.org/2000/svg">
</g>
<g xmlns="http://www.w3.org/2000/svg">
</g>
<g xmlns="http://www.w3.org/2000/svg">
</g>
<g xmlns="http://www.w3.org/2000/svg">
</g>
<g xmlns="http://www.w3.org/2000/svg">
</g>
<g xmlns="http://www.w3.org/2000/svg">
</g>
<g xmlns="http://www.w3.org/2000/svg">
</g>
</g></svg>
